<svg xmlns="http://www.w3.org/2000/svg" width="600" height="400" viewBox="0 0 600 400"><rect width="100%" height="100%" fill="#DDDDDD"/><path fill="#999999" d="M218.945 133.38v49.89h-9.32v-49.89h9.32Zm18.32 49.89h-8.52v-35.4h5.21q1.65 0 2.17 1.56l.55 2.62q.93-1.04 1.95-1.9 1.02-.86 2.17-1.48 1.16-.62 2.49-.99 1.33-.36 2.91-.36 3.35 0 5.51 1.81 2.15 1.81 3.22 4.81.83-1.75 2.07-3.01 1.24-1.26 2.73-2.06 1.48-.79 3.15-1.17 1.68-.38 3.37-.38 2.93 0 5.21.9 2.27.89 3.83 2.62 1.55 1.72 2.36 4.21.81 2.48.81 5.69v22.53h-8.52v-22.53q0-3.38-1.48-5.09-1.49-1.71-4.35-1.71-1.31 0-2.43.45t-1.97 1.3q-.84.84-1.33 2.12-.48 1.28-.48 2.93v22.53h-8.56v-22.53q0-3.55-1.43-5.17-1.43-1.63-4.19-1.63-1.86 0-3.47.92-1.6.91-2.98 2.5v25.91Zm67.96-9.14v-5.97q-3.69.17-6.21.64-2.52.46-4.03 1.19-1.52.72-2.18 1.69-.65.96-.65 2.1 0 2.24 1.33 3.21 1.32.97 3.46.97 2.63 0 4.54-.95 1.91-.95 3.74-2.88Zm-18.01-18.6-1.51-2.72q6.1-5.59 14.69-5.59 3.11 0 5.56 1.02 2.45 1.01 4.14 2.82 1.69 1.82 2.57 4.33.88 2.52.88 5.52v22.36h-3.87q-1.2 0-1.86-.36-.65-.36-1.03-1.47l-.76-2.55q-1.35 1.21-2.63 2.12-1.27.91-2.65 1.54-1.38.62-2.95.94-1.57.33-3.47.33-2.24 0-4.14-.6-1.9-.61-3.28-1.81-1.38-1.21-2.14-3-.75-1.8-.75-4.18 0-1.34.44-2.67.45-1.33 1.47-2.54t2.64-2.28q1.62-1.07 3.98-1.86 2.37-.79 5.51-1.29 3.14-.5 7.17-.61v-2.07q0-3.55-1.51-5.26-1.52-1.71-4.39-1.71-2.07 0-3.43.49-1.36.48-2.4 1.08-1.03.61-1.88 1.09-.84.48-1.88.48-.89 0-1.52-.46-.62-.47-1-1.09Zm47.27 9.18q1.59 0 2.76-.43 1.17-.43 1.95-1.19.77-.76 1.17-1.83.4-1.07.4-2.35 0-2.62-1.57-4.15-1.57-1.54-4.71-1.54-3.14 0-4.71 1.54-1.57 1.53-1.57 4.15 0 1.24.4 2.31.39 1.07 1.17 1.85.78.78 1.97 1.21 1.19.43 2.74.43Zm9.62 20.15q0-1.04-.62-1.69-.62-.66-1.69-1.02-1.07-.36-2.5-.54-1.43-.17-3.03-.25-1.61-.09-3.32-.16-1.7-.07-3.33-.28-1.41.8-2.29 1.87-.88 1.07-.88 2.48 0 .93.47 1.74.46.81 1.48 1.4 1.02.59 2.64.91 1.62.33 3.97.33 2.38 0 4.1-.36 1.73-.36 2.85-1t1.64-1.52q.51-.88.51-1.91Zm-1.69-35.78h10.18v3.17q0 1.52-1.83 1.87l-3.17.58q.72 1.83.72 4.01 0 2.62-1.05 4.74t-2.91 3.61q-1.87 1.48-4.4 2.29-2.54.81-5.47.81-1.04 0-2-.1-.97-.11-1.9-.28-1.66 1-1.66 2.24 0 1.07.99 1.57.98.5 2.6.71 1.62.21 3.69.26 2.07.05 4.25.22 2.17.18 4.24.61 2.07.43 3.69 1.36 1.62.93 2.61 2.54.98 1.6.98 4.12 0 2.34-1.16 4.55-1.15 2.21-3.34 3.94-2.19 1.72-5.38 2.77t-7.27 1.05q-4 0-6.96-.77-2.97-.78-4.94-2.07-1.96-1.3-2.93-2.99-.97-1.69-.97-3.51 0-2.49 1.5-4.16 1.5-1.68 4.13-2.68-1.42-.72-2.25-1.93-.82-1.21-.82-3.17 0-.8.29-1.64.29-.85.86-1.67.57-.83 1.43-1.57.87-.75 2.04-1.33-2.69-1.45-4.23-3.87-1.53-2.41-1.53-5.65 0-2.63 1.05-4.75t2.93-3.62q1.88-1.5 4.45-2.29 2.57-.8 5.61-.8 2.28 0 4.28.47 2 .46 3.65 1.36Zm22.29 12.42h16.08q0-1.66-.47-3.12-.46-1.47-1.39-2.57-.94-1.11-2.37-1.74-1.43-.64-3.33-.64-3.69 0-5.81 2.1-2.12 2.11-2.71 5.97Zm21.74 5.14h-21.91q.21 2.73.96 4.71.76 1.98 2.01 3.28 1.24 1.29 2.95 1.93 1.7.64 3.77.64 2.07 0 3.57-.49 1.5-.48 2.63-1.06 1.12-.59 1.96-1.07.85-.49 1.64-.49 1.07 0 1.59.8l2.45 3.1q-1.42 1.66-3.18 2.78-1.76 1.12-3.67 1.79-1.92.68-3.9.95-1.98.28-3.85.28-3.69 0-6.86-1.23-3.18-1.22-5.52-3.62-2.35-2.4-3.69-5.93-1.35-3.54-1.35-8.2 0-3.62 1.17-6.81 1.18-3.19 3.37-5.56 2.19-2.36 5.35-3.74 3.15-1.38 7.12-1.38 3.35 0 6.18 1.07 2.82 1.07 4.86 3.12 2.04 2.06 3.19 5.04 1.16 2.98 1.16 6.81 0 1.94-.42 2.61-.41.67-1.58.67Zm-255.48 74.62h6.94q2.55 0 4.45-.63 1.9-.64 3.16-1.83 1.25-1.19 1.88-2.9.62-1.71.62-3.81 0-2-.62-3.62-.63-1.63-1.87-2.76-1.24-1.14-3.14-1.75-1.89-.6-4.48-.6h-6.94v17.9Zm-9.28-25.08h16.22q5 0 8.66 1.18 3.65 1.17 6.04 3.27 2.38 2.11 3.53 5.04 1.16 2.93 1.16 6.42 0 3.62-1.21 6.64-1.21 3.02-3.62 5.19-2.42 2.17-6.06 3.38-3.64 1.21-8.5 1.21h-6.94v17.56h-9.28v-49.89Zm41.47-1.38h8.52v51.27h-8.52V214.8Zm35.74 42.13v-5.97q-3.69.17-6.21.64-2.51.46-4.03 1.19-1.52.72-2.18 1.69-.65.96-.65 2.1 0 2.25 1.33 3.21 1.33.97 3.46.97 2.63 0 4.54-.95 1.92-.95 3.74-2.88Zm-18-18.6-1.52-2.72q6.1-5.59 14.69-5.59 3.11 0 5.56 1.02 2.45 1.01 4.14 2.82 1.69 1.82 2.57 4.33.88 2.52.88 5.52v22.36h-3.87q-1.2 0-1.86-.36-.65-.36-1.03-1.47l-.76-2.55q-1.35 1.21-2.62 2.12-1.28.91-2.66 1.54-1.38.62-2.95.94-1.57.33-3.47.33-2.24 0-4.14-.6-1.9-.61-3.28-1.81-1.38-1.21-2.13-3-.76-1.8-.76-4.18 0-1.34.45-2.67.44-1.33 1.46-2.54t2.64-2.28q1.62-1.06 3.99-1.86 2.36-.79 5.5-1.29t7.17-.61v-2.07q0-3.55-1.51-5.26-1.52-1.7-4.39-1.7-2.07 0-3.43.48-1.36.48-2.4 1.08-1.03.61-1.88 1.09-.84.48-1.88.48-.89 0-1.51-.46-.63-.47-1-1.09Zm61.92-3.28-2.24 3.11q-.38.48-.74.76-.36.27-1.05.27-.66 0-1.28-.39-.62-.4-1.48-.9-.87-.5-2.06-.9-1.19-.39-2.95-.39-2.24 0-3.93.81t-2.81 2.33q-1.12 1.51-1.67 3.67-.56 2.16-.56 4.88 0 2.83.61 5.04.6 2.21 1.74 3.71 1.14 1.5 2.76 2.28 1.62.77 3.66.77 2.03 0 3.29-.5 1.26-.5 2.12-1.1.87-.61 1.5-1.11.64-.5 1.44-.5 1.03 0 1.55.8l2.45 3.1q-1.42 1.66-3.07 2.78-1.66 1.12-3.44 1.79-1.77.68-3.65.95-1.88.28-3.75.28-3.27 0-6.17-1.23-2.9-1.22-5.07-3.57-2.18-2.34-3.44-5.74-1.25-3.4-1.25-7.75 0-3.9 1.12-7.23 1.12-3.32 3.29-5.76 2.17-2.43 5.38-3.81t7.39-1.38q3.96 0 6.95 1.28 2.98 1.27 5.36 3.65Zm12.39 9.25h16.08q0-1.66-.47-3.12-.47-1.47-1.4-2.57-.93-1.11-2.36-1.74-1.43-.64-3.33-.64-3.69 0-5.81 2.1-2.13 2.11-2.71 5.97Zm21.73 5.14h-21.9q.2 2.73.96 4.71t2 3.28q1.24 1.29 2.95 1.93 1.71.64 3.78.64t3.57-.48q1.5-.49 2.62-1.07 1.12-.59 1.97-1.07.84-.49 1.64-.49 1.07 0 1.59.8l2.44 3.1q-1.41 1.66-3.17 2.78-1.76 1.12-3.67 1.79-1.92.68-3.9.95-1.99.28-3.85.28-3.69 0-6.86-1.23-3.18-1.22-5.52-3.62-2.35-2.4-3.7-5.93-1.34-3.54-1.34-8.2 0-3.62 1.17-6.81 1.17-3.19 3.37-5.56 2.19-2.36 5.34-3.74 3.16-1.38 7.13-1.38 3.34 0 6.17 1.07t4.87 3.12q2.03 2.06 3.19 5.04 1.15 2.98 1.15 6.81 0 1.94-.41 2.61-.41.67-1.59.67Zm16.91-34.64v19.67q2.07-1.93 4.55-3.14 2.49-1.21 5.83-1.21 2.9 0 5.14.98 2.25.99 3.75 2.76 1.5 1.78 2.27 4.25.78 2.46.78 5.43v22.53h-8.52v-22.53q0-3.24-1.49-5.02-1.48-1.77-4.51-1.77-2.21 0-4.14 1-1.94 1-3.66 2.72v25.6h-8.52V214.8h8.52Zm46.06 15.32q3.93 0 7.15 1.28 3.23 1.27 5.52 3.62 2.3 2.35 3.54 5.73 1.24 3.38 1.24 7.55 0 4.21-1.24 7.59t-3.54 5.76q-2.29 2.38-5.52 3.66-3.22 1.28-7.15 1.28-3.97 0-7.21-1.28-3.25-1.28-5.54-3.66-2.3-2.38-3.56-5.76-1.25-3.38-1.25-7.59 0-4.17 1.25-7.55 1.26-3.38 3.56-5.73 2.29-2.35 5.54-3.62 3.24-1.28 7.21-1.28Zm0 29.91q4.41 0 6.53-2.96 2.13-2.97 2.13-8.7 0-5.73-2.13-8.73-2.12-3-6.53-3-4.49 0-6.65 3.02-2.15 3.02-2.15 8.71 0 5.69 2.15 8.68 2.16 2.98 6.65 2.98Zm24.08-45.23h8.52v51.27h-8.52V214.8Zm39.26 40.78v-15.87q-1.45-1.76-3.16-2.48-1.71-.73-3.67-.73-1.94 0-3.49.73-1.55.72-2.65 2.19-1.11 1.47-1.69 3.72-.59 2.26-.59 5.34 0 3.1.5 5.26.5 2.15 1.43 3.52.93 1.36 2.28 1.96 1.34.61 3 .61 2.66 0 4.52-1.11 1.86-1.1 3.52-3.14Zm0-40.78h8.52v51.27h-5.21q-1.69 0-2.14-1.55l-.72-3.42q-2.14 2.45-4.92 3.97t-6.47 1.52q-2.9 0-5.31-1.21-2.42-1.21-4.16-3.5-1.74-2.3-2.69-5.68t-.95-7.72q0-3.94 1.07-7.32 1.07-3.38 3.07-5.86 2-2.49 4.8-3.89 2.79-1.39 6.28-1.39 2.96 0 5.07.93 2.1.93 3.76 2.52V214.8Zm23.66 29.5h16.08q0-1.66-.46-3.12-.47-1.47-1.4-2.57-.93-1.11-2.36-1.74-1.44-.64-3.33-.64-3.7 0-5.82 2.1-2.12 2.11-2.71 5.97Zm21.74 5.14h-21.91q.21 2.73.97 4.71t2 3.28q1.24 1.29 2.95 1.93 1.71.64 3.78.64t3.57-.48q1.5-.49 2.62-1.07 1.12-.59 1.97-1.07.84-.49 1.63-.49 1.07 0 1.59.8l2.45 3.1q-1.41 1.66-3.17 2.78-1.76 1.12-3.68 1.79-1.91.68-3.9.95-1.98.28-3.84.28-3.69 0-6.87-1.23-3.17-1.22-5.52-3.62-2.34-2.4-3.69-5.93-1.34-3.54-1.34-8.2 0-3.62 1.17-6.81 1.17-3.19 3.36-5.56 2.19-2.36 5.35-3.74 3.16-1.38 7.12-1.38 3.35 0 6.18 1.07 2.83 1.07 4.86 3.12 2.04 2.06 3.2 5.04 1.15 2.98 1.15 6.81 0 1.94-.41 2.61-.42.67-1.59.67Zm15.9-16.63.52 4q1.66-3.17 3.93-4.98 2.28-1.81 5.39-1.81 2.45 0 3.93 1.07l-.55 6.38q-.17.62-.5.88-.33.26-.88.26-.52 0-1.54-.17-1.02-.18-1.98-.18-1.42 0-2.52.42-1.1.41-1.98 1.19-.88.77-1.56 1.88-.67 1.1-1.26 2.52v21.8h-8.52v-35.4h5.01q1.31 0 1.82.47.52.46.69 1.67Z"/></svg>